<?xml version="1.0" ?><svg enable-background="new 0 0 32 32" version="1.1" viewBox="0 0 32 32" xml:space="preserve" xmlns="http://www.w3.org/2000/svg" xmlns:xlink="http://www.w3.org/1999/xlink"><g id="Layer_4"><path d="M16,0C7.178,0,0,7.178,0,16c0,8.822,7.178,16,16,16s16-7.178,16-16C32,7.178,24.822,0,16,0L16,0z" fill="#00D09C"/><path d="M16,1.625C8.074,1.625,1.625,8.074,1.625,16c0,7.926,6.449,14.375,14.375,14.375S30.375,23.926,30.375,16   C30.375,8.074,23.926,1.625,16,1.625L16,1.625z"/><path d="M16,1.625L16,1.625C8.074,1.625,1.625,8.074,1.625,16c0,7.926,6.449,14.375,14.375,14.375   V1.625z" fill="#FFFFFF" opacity="0.22"/></g><g id="Official"><path d="M16.659,21.845c-2.371,0.126-3.481-0.409-4.498-1.382c-1.135-1.087-0.679-2.326,0.245-2.389   c0.924-0.063,1.479,1.068,1.973,1.383c0.493,0.314,2.367,1.028,3.358-0.127c1.078-1.257-0.717-1.906-2.034-2.104   c-1.879-0.283-4.252-1.32-4.067-3.363c0.184-2.041,1.701-3.088,3.296-3.236c2.034-0.188,3.358,0.314,4.405,1.226   c1.211,1.053,0.555,2.23-0.215,2.325c-0.768,0.094-1.631-1.732-3.326-1.759c-1.747-0.028-2.927,1.854-0.771,2.388   c2.157,0.534,4.468,0.754,5.3,2.764C21.158,19.583,19.032,21.718,16.659,21.845z M23.346,17.061c0.045-0.335,0.07-0.675,0.07-1.021   c0-4.155-3.338-7.524-7.454-7.524c-0.409,0-0.81,0.034-1.201,0.099c-0.7-0.463-1.534-0.733-2.43-0.733   c-2.458,0-4.448,2.021-4.448,4.514c0,0.907,0.263,1.75,0.716,2.457c-0.061,0.387-0.092,0.783-0.092,1.186   c0,4.156,3.336,7.524,7.454,7.524c0.465,0,0.918-0.046,1.357-0.126c0.683,0.43,1.489,0.68,2.352,0.68   c2.457,0,4.448-2.021,4.448-4.514C24.118,18.661,23.834,17.785,23.346,17.061z" fill="#FFFFFF"/></g></svg>