<?xml version="1.0" ?><svg enable-background="new 0 0 32 32" version="1.1" viewBox="0 0 32 32" xml:space="preserve" xmlns="http://www.w3.org/2000/svg" xmlns:xlink="http://www.w3.org/1999/xlink"><g id="Layer_4"><path d="M16,0C7.178,0,0,7.178,0,16c0,8.822,7.178,16,16,16s16-7.178,16-16C32,7.178,24.822,0,16,0L16,0z" fill="#00D09C"/><path d="M16,1.625C8.074,1.625,1.625,8.074,1.625,16c0,7.926,6.449,14.375,14.375,14.375S30.375,23.926,30.375,16   C30.375,8.074,23.926,1.625,16,1.625L16,1.625z"/><path d="M16,1.625L16,1.625C8.074,1.625,1.625,8.074,1.625,16c0,7.926,6.449,14.375,14.375,14.375   V1.625z" fill="#FFFFFF" opacity="0.22"/></g><g id="Official"><path d="M21.555,8.593h-11.11c-1.046,0-1.852,0.806-1.852,1.852v11.11c0,1.045,0.806,1.852,1.852,1.852h11.11   c1.045,0,1.852-0.806,1.852-1.852v-11.11C23.407,9.399,22.6,8.593,21.555,8.593z M16.011,13.09c1.643,0,2.974,1.29,2.974,2.882   c0,1.591-1.331,2.882-2.974,2.882c-1.642,0-2.973-1.291-2.973-2.882C13.038,14.38,14.37,13.09,16.011,13.09z M21.555,21.092   c0,0.325-0.139,0.463-0.463,0.463H10.908c-0.324,0-0.463-0.138-0.463-0.463v-6.481l1.154,0.251   c-0.124,0.403-0.191,0.829-0.191,1.271c0,2.462,2.062,4.46,4.603,4.46c2.542,0,4.603-1.997,4.603-4.46   c0-0.442-0.067-0.868-0.191-1.271l1.132-0.251V21.092z M21.555,12.76c0,0.256-0.207,0.463-0.463,0.463H19.24   c-0.256,0-0.463-0.207-0.463-0.463v-1.852c0-0.256,0.207-0.463,0.463-0.463h1.852c0.256,0,0.463,0.207,0.463,0.463V12.76z" fill="#FFFFFF"/></g></svg>